<svg width="1440" height="280" fill="none" xmlns="http://www.w3.org/2000/svg"><mask id="a" style="mask-type:alpha" maskUnits="userSpaceOnUse" x="0" y="0" width="1440" height="280"><path fill="#EBEAF0" d="M0 0h1440v280H0z"/></mask><g mask="url(#a)"><path fill="#EBEAF0" d="M0 0h1440v280H0z"/><path d="M372.099 478.485c-41.176 38.312-19.92 85.865-81.544 92.917l783.335 96.987 273.01-757.49-413.773-276.741c-6.55 12.958-14.747 41.153-8.855 92.648C930.165-221.7 1026.16 90.433 935.5 60.5c-53-17.5-125.779-16-167 28-41.221 44-23.639 101.084-132.56 126.784C510 245 580 350 492 393c-58.113 28.396-84.656 52.692-119.901 85.485z" fill="#FFA945"/><path d="M484.575 470.04c-45.424 42.264-21.975 94.723-89.956 102.502l864.151 106.992 301.17-835.633-456.46-305.291c-7.23 14.295-16.27 45.399-9.77 102.206 6.5 56.806 74.72 191.453-20.97 235.432C991.239-86.299 981.941-55.819 977.5 25c-6.147 111.871-84.248 129.071-201.865 154.686-104.055 22.663-118.225 145.211-168.416 199.3-48.534 52.302-83.763 54.877-122.644 91.054z" fill="#FE8D53"/><path d="M953.13-286.947c14.814-51.69 64.55-54.174 43.863-109.749l456.437-73.056 93.16 703.464L891.688 789.72 501.742 677.181c8.207-11.195 28.686-30.396 75.125-47.682 46.439-17.285 164.957-139.1 148.489-228.875-14.524-79.178 11.211-119.078 68.154-160.042C873.845 182.789 801.52 147.959 839 71 876.5-6 951 0 973.5 0c61.84 0-33.05-242.702-20.37-286.947z" fill="#3F3D4B"/><path d="M1189.89-267.301c25.81-43.33 71.51-33.673 66.06-89.027l431.43 43.047-83.97 660.28-727.072 347.415-326.692-195.441c10.124-8.188 33.294-20.697 79.549-25.253 46.255-4.556 182.91-86.648 189.473-172.008 5.789-75.285 38.683-105.308 100.134-128.822 86.698-33.174 41.84-105.944 78.941-177.15 39.997-76.773 106.377-100.855 140.777-149.996 33.26-47.52 29.27-75.956 51.37-113.045z" fill="#525061"/><g opacity=".7" filter="url(#filter0_di_465_190)"><rect x="804.001" y="72" width="119.999" height="220.799" rx="12" fill="#EBEAF0"/></g><rect opacity=".1" x="794.001" y="92" width="119.999" height="220.799" rx="12" fill="#1A1A22"/><g filter="url(#filter1_i_465_190)"><rect x="804" y="72" width="119.999" height="220.799" rx="12" fill="#1A1A22"/></g><rect x="804" y="72" width="119.999" height="220.799" rx="12" fill="url(#paint0_linear_465_190)"/><rect x="848" y="196.888" width="49.555" height="3.333" rx="1.667" fill="#525061"/><rect x="848" y="204.666" width="30.444" height="3.333" rx="1.667" fill="#525061"/><path fill-rule="evenodd" clip-rule="evenodd" d="M839.176 200.666c0-.473.383-.857.857-.857h.571a3.142 3.142 0 110 6.286h-.571a.857.857 0 110-1.715h.571a1.427 1.427 0 100-2.857h-.571a.857.857 0 01-.857-.857z" fill="#BCBAC8"/><path fill-rule="evenodd" clip-rule="evenodd" d="M830.032 200.666c0-.473.384-.857.857-.857h9.143c.474 0 .857.384.857.857v5.143a3.143 3.143 0 01-3.143 3.143h-4.571a3.14 3.14 0 01-3.143-3.143v-5.143zm1.715.857v4.286a1.427 1.427 0 001.428 1.428h4.571a1.43 1.43 0 001.429-1.428v-4.286h-7.428zM833.175 195.809c.473 0 .857.384.857.857v1.714a.857.857 0 11-1.714 0v-1.714c0-.473.384-.857.857-.857zM835.461 195.809c.473 0 .857.384.857.857v1.714a.857.857 0 11-1.714 0v-1.714c0-.473.383-.857.857-.857zM837.747 195.809c.473 0 .857.384.857.857v1.714a.857.857 0 11-1.714 0v-1.714c0-.473.384-.857.857-.857z" fill="#BCBAC8"/><rect x="848" y="225.777" width="49.555" height="3.333" rx="1.667" fill="#525061"/><rect x="848" y="233.555" width="30.444" height="3.333" rx="1.667" fill="#525061"/><path fill-rule="evenodd" clip-rule="evenodd" d="M831.644 228.745c-.252 0-.343.175-.343.254v5.556c0 .079.091.254.343.254h9.6c.253 0 .343-.175.343-.254v-5.556c0-.079-.09-.254-.343-.254h-9.6zm-2.057.254c0-1.148.984-1.968 2.057-1.968h9.6c1.073 0 2.057.82 2.057 1.968v5.556c0 1.148-.984 1.968-2.057 1.968h-9.6c-1.073 0-2.057-.82-2.057-1.968v-5.556z" fill="#BCBAC8"/><path fill-rule="evenodd" clip-rule="evenodd" d="M833.814 225.362c.39-.361.906-.553 1.431-.553h2.4c.525 0 1.041.192 1.431.553.392.363.626.871.626 1.415v8.889a.857.857 0 01-1.714 0v-8.889a.217.217 0 00-.077-.157.392.392 0 00-.266-.097h-2.4a.392.392 0 00-.266.097.217.217 0 00-.077.157v8.889a.857.857 0 01-1.714 0v-8.889c0-.544.234-1.052.626-1.415z" fill="#BCBAC8"/><rect x="847.999" y="254.666" width="49.555" height="3.333" rx="1.667" fill="#525061"/><rect x="847.999" y="262.443" width="30.444" height="3.333" rx="1.667" fill="#525061"/><path fill-rule="evenodd" clip-rule="evenodd" d="M832.669 253.485a.857.857 0 01.686-.343h7.2c.269 0 .523.127.685.343l1.8 2.4a.85.85 0 01.172.514v8.4a2.055 2.055 0 01-2.057 2.057h-8.4a2.057 2.057 0 01-2.057-2.057v-8.4c0-.186.06-.366.171-.514l1.8-2.4zm1.114 1.371l-1.371 1.829v8.114a.342.342 0 00.343.343h8.4a.342.342 0 00.342-.343v-8.114l-1.371-1.829h-6.343z" fill="#BCBAC8"/><path fill-rule="evenodd" clip-rule="evenodd" d="M830.698 256.399c0-.474.383-.857.857-.857h10.8a.857.857 0 110 1.714h-10.8a.857.857 0 01-.857-.857zM834.555 257.942c.473 0 .857.384.857.857a1.54 1.54 0 001.543 1.543 1.543 1.543 0 001.542-1.543.858.858 0 011.715 0 3.256 3.256 0 11-6.514 0c0-.473.383-.857.857-.857z" fill="#BCBAC8"/><path opacity=".9" d="M804 84c0-6.627 5.373-12 12-12h95.999c6.628 0 12 5.373 12 12v94.666H804V84z" fill="#BCBAC8"/><path opacity=".3" d="M804 84c0-6.627 5.373-12 12-12h95.999c6.628 0 12 5.373 12 12v94.666H804V84z" fill="url(#paint1_linear_465_190)"/><mask id="b" style="mask-type:alpha" maskUnits="userSpaceOnUse" x="812" y="80" width="21" height="21"><rect x="812.89" y="80.889" width="20" height="20" rx="10" fill="#fff"/></mask><g mask="url(#b)"><rect opacity=".9" x="812.889" y="80.889" width="20" height="20" rx="10" fill="#838192"/><path d="M821.111 89.845s.567 3.588-.472 4.06c-1.039.472-1.7.85-1.7.85l2.361 1.605 4.344.284 1.133-.85 1.039-.944s-1.7-.378-1.7-1.228-.094-3.4-.094-3.4l-4.911-.377z" fill="#DBDAE2"/><path opacity=".1" d="M821.111 89.845s.567 3.588-.472 4.06c-1.039.472-1.7.85-1.7.85l2.361 1.605 4.344.284 1.133-.85 1.039-.944s-1.7-.378-1.7-1.228-.094-3.4-.094-3.4l-4.911-.377z" fill="#000"/><path d="M823.66 92.3a4.155 4.155 0 100-8.31 4.155 4.155 0 000 8.31z" fill="#DBDAE2"/><path d="M831.31 95.605s-3.291-1.292-4.478-1.118a4.858 4.858 0 01-3.737 1.118c-2.266-.283-3.152-1.371-3.152-1.371s-6.102 1.37-5.724 1.937c.377.567 2.077 9.821 2.077 9.821s1.133 8.026-.189 10.765c-1.322 2.738-1.983 7.271-1.416 7.649.566.377 6.893 2.077 7.649 2.549.755.472 1.038-1.133 1.51-.85.473.284 1.511.756 2.172.378.661-.378 7.082-3.777 6.894-4.438-.189-.661-2.644-8.688-3.494-10.293-.85-1.605-.189-5.005.283-5.666.472-.661 1.416-1.416 1.605-3.305.189-1.888 0-7.176 0-7.176z" fill="#EBEAF0"/><path d="M814.426 95.88s-.775.575-1.058 1.803c-.283 1.227-.661 11.048-.661 11.048s-3.494 13.503-2.738 13.786c.755.284 2.927.85 3.21.567.283-.283 3.494-11.709 3.211-12.937-.284-1.227.377-4.816.377-4.816l-2.341-9.451zM830.271 95.983l1.038-.378s.567-.378 1.228 1.039c.661 1.416 7.838 9.726 6.516 12.37-1.322 2.644-5.666 8.026-5.855 7.648-.189-.377-2.361-3.21-1.983-3.493.378-.284 4.721-4.155 4.155-4.722-.567-.566-2.927-5.382-4.249-5.571-1.322-.189-.85-6.893-.85-6.893z" fill="#EBEAF0"/><path d="M820.058 81.365c-.498.41-.97.87-1.28 1.436a6.511 6.511 0 00-.406.988c-.381 1.1-1.331 2.212-.929 3.304.115.312.293.64.191.956-.092.28-.373.444-.577.657-.437.457-.511 1.143-.538 1.776-.048 1.157.588 2.522 1.357 3.389.167.163.322.338.463.524a1.217 1.217 0 01.145 1.01l1.121-.234c.04.414.053.83.038 1.245a1.163 1.163 0 001.232-.796c.064.296.167.582.308.85.329-.41.581-.877.745-1.378.214-.64.26-1.326.133-1.99a8.407 8.407 0 00-.482-1.414c-.396-1.001-.72-2.029-1.043-3.055-.167-.533-.337-1.084-.286-1.64l.398-.044c.004-.22.047-.437.126-.642.233.049.457.133.665.25l.46-1.165c.302.315.737.457 1.154.588l1.582.498.01-.313a8.108 8.108 0 002.251 1.412.515.515 0 01-.111-.407c.39.698.234 1.569-.007 2.332-.24.763-.56 1.54-.463 2.333.073.594.377 1.162.321 1.758-.028.293-.143.573-.178.865-.086.698.281 1.362.635 1.969l.689-.946c.252-.346.511-.7.868-.936.366-.242.82-.351 1.139-.653.57-.54.498-1.458.312-2.22-.098-.405-.217-.816-.181-1.232.061-.704.551-1.286.826-1.937a3.37 3.37 0 00-.188-2.957c-.342-.587-.859-1.06-1.181-1.657-.321-.595-.443-1.303-.883-1.816a3.046 3.046 0 00-.74-.59 9.644 9.644 0 00-4.104-1.339c-1.376-.143-2.537.351-3.592 1.22z" fill="#3F3D4B"/></g><rect opacity=".5" x="830.64" y="141.013" width="66.72" height="3.36" rx="1.68" fill="#525061"/><rect x="830.64" y="141.013" width="40.053" height="3.36" rx="1.68" fill="#3F3D4B"/><rect opacity=".5" x="843.592" y="148.88" width="40.818" height="3.36" rx="1.68" fill="#525061"/><rect opacity=".5" x="850.222" y="86.658" width="27.484" height="3.36" rx="1.68" fill="#525061"/><g opacity=".3" filter="url(#filter2_f_465_190)"><rect x="899.668" y="82.403" width="9.766" height="199.993" rx="4.883" fill="url(#paint2_linear_465_190)"/></g><path d="M841.723 130.522h2.72v-7.14c0-.35.01-.715.029-1.098l-1.603 1.331a1.119 1.119 0 01-.311.185 1.015 1.015 0 01-.757-.058 1.042 1.042 0 01-.292-.243l-.952-1.263 4.41-3.701h2.487v11.987h2.332v2.176h-8.063v-2.176zM851.205 130.988a1.391 1.391 0 01.447-1.039c.149-.136.321-.243.515-.321.201-.077.424-.116.67-.116.292 0 .544.052.758.155a1.56 1.56 0 01.845 1.001c.072.22.107.453.107.699 0 .324-.052.671-.155 1.04a5.11 5.11 0 01-.467 1.097c-.2.37-.453.732-.757 1.088-.305.357-.654.68-1.049.972l-.525-.466a1.153 1.153 0 01-.165-.204.436.436 0 01.019-.438.98.98 0 01.165-.194c.078-.078.169-.171.272-.282a4.43 4.43 0 00.311-.369 3.03 3.03 0 00.282-.447c.091-.161.159-.333.204-.514a1.677 1.677 0 01-.612-.166 1.485 1.485 0 01-.466-.359 1.793 1.793 0 01-.292-.505 1.827 1.827 0 01-.107-.632zM864.831 119.788c0 .207-.032.395-.097.563a1.154 1.154 0 01-.311.447c-.136.123-.317.22-.544.292a3.021 3.021 0 01-.816.097h-3.38l-.399 2.341c.266-.045.522-.078.768-.097.246-.026.486-.039.719-.039.744 0 1.402.113 1.972.34.57.227 1.049.537 1.437.932.389.389.68.849.875 1.38.2.524.301 1.088.301 1.69 0 .758-.136 1.451-.408 2.079a4.79 4.79 0 01-1.117 1.613 5.098 5.098 0 01-1.72 1.058c-.66.247-1.386.37-2.176.37-.46 0-.9-.049-1.321-.146a6.745 6.745 0 01-1.175-.389 6.867 6.867 0 01-1.011-.573 7.12 7.12 0 01-.845-.699l.933-1.244a.965.965 0 01.34-.291.855.855 0 01.418-.107c.194 0 .375.055.544.165.174.104.362.22.563.35.207.123.447.236.719.34.272.103.609.155 1.01.155.402 0 .745-.064 1.03-.194.285-.136.515-.317.69-.544a2.18 2.18 0 00.388-.806c.084-.311.126-.641.126-.991 0-.687-.194-1.208-.582-1.564-.389-.363-.939-.544-1.652-.544-.635 0-1.256.12-1.865.359l-1.865-.505 1.204-7.082h7.247v1.244zM877.286 125.616c0 1.237-.132 2.309-.398 3.216-.265.907-.634 1.658-1.107 2.254a4.401 4.401 0 01-1.671 1.33 4.978 4.978 0 01-2.089.438 4.977 4.977 0 01-2.088-.438 4.444 4.444 0 01-1.652-1.33c-.466-.596-.832-1.347-1.097-2.254-.259-.907-.389-1.979-.389-3.216s.13-2.308.389-3.215c.265-.907.631-1.658 1.097-2.254.467-.596 1.017-1.036 1.652-1.321a4.991 4.991 0 012.088-.437c.752 0 1.448.146 2.089.437a4.311 4.311 0 011.671 1.321c.473.596.842 1.347 1.107 2.254.266.907.398 1.978.398 3.215zm-3.108 0c0-.977-.062-1.777-.185-2.399-.123-.628-.288-1.12-.495-1.477-.201-.356-.431-.599-.69-.728a1.676 1.676 0 00-.787-.204c-.265 0-.527.068-.787.204-.252.129-.479.372-.68.728-.194.357-.352.849-.476 1.477-.116.622-.174 1.422-.174 2.399 0 .985.058 1.788.174 2.41.124.621.282 1.113.476 1.476.201.356.428.602.68.738.26.13.522.195.787.195.266 0 .528-.065.787-.195.259-.136.489-.382.69-.738.207-.363.372-.855.495-1.476.123-.622.185-1.425.185-2.41zM888.557 125.616c0 1.237-.133 2.309-.399 3.216-.265.907-.634 1.658-1.107 2.254a4.394 4.394 0 01-1.671 1.33 4.978 4.978 0 01-2.089.438 4.977 4.977 0 01-2.088-.438 4.444 4.444 0 01-1.652-1.33c-.466-.596-.832-1.347-1.097-2.254-.259-.907-.389-1.979-.389-3.216s.13-2.308.389-3.215c.265-.907.631-1.658 1.097-2.254.467-.596 1.017-1.036 1.652-1.321a4.991 4.991 0 012.088-.437c.752 0 1.448.146 2.089.437a4.304 4.304 0 011.671 1.321c.473.596.842 1.347 1.107 2.254.266.907.399 1.978.399 3.215zm-3.109 0c0-.977-.062-1.777-.185-2.399-.123-.628-.288-1.12-.495-1.477-.201-.356-.431-.599-.69-.728a1.676 1.676 0 00-.787-.204c-.265 0-.527.068-.786.204-.253.129-.48.372-.68.728-.195.357-.353.849-.476 1.477-.117.622-.175 1.422-.175 2.399 0 .985.058 1.788.175 2.41.123.621.281 1.113.476 1.476.2.356.427.602.68.738.259.13.521.195.786.195.266 0 .528-.065.787-.195.259-.136.489-.382.69-.738.207-.363.372-.855.495-1.476.123-.622.185-1.425.185-2.41z" fill="#3F3D4B"/><g opacity=".7" filter="url(#filter3_di_465_190)"><rect x="900.001" y="32.232" width="139.999" height="257.598" rx="12" fill="#EBEAF0"/></g><rect opacity=".1" x="910.001" y="42.232" width="139.999" height="257.598" rx="12" fill="#EBEAF0"/><g opacity=".8" filter="url(#filter4_i_465_190)"><rect x="900" y="32.232" width="139.999" height="257.598" rx="12" fill="#1A1A22"/></g><rect x="900" y="32.232" width="139.999" height="257.598" rx="12" fill="url(#paint3_linear_465_190)"/><mask id="c" style="mask-type:alpha" maskUnits="userSpaceOnUse" x="910" y="42" width="24" height="24"><rect x="910.372" y="42.602" width="23.333" height="23.333" rx="11.667" fill="#fff"/></mask><g mask="url(#c)"><rect opacity=".9" x="910.371" y="42.602" width="23.333" height="23.333" rx="11.667" fill="#838192"/><path d="M919.963 53.05s.661 4.187-.551 4.738c-1.211.55-1.983.991-1.983.991l2.755 1.873 5.067.33 1.322-.991 1.212-1.102s-1.983-.44-1.983-1.432c0-.991-.11-3.966-.11-3.966l-5.729-.44z" fill="#DBDAE2"/><path opacity=".1" d="M919.963 53.05s.661 4.187-.551 4.738c-1.211.55-1.983.991-1.983.991l2.755 1.873 5.067.33 1.322-.991 1.212-1.102s-1.983-.44-1.983-1.432c0-.991-.11-3.966-.11-3.966l-5.729-.44z" fill="#000"/><path d="M922.937 55.914a4.847 4.847 0 10.001-9.694 4.847 4.847 0 00-.001 9.694z" fill="#DBDAE2"/><path d="M931.862 59.77s-3.84-1.507-5.225-1.304a5.667 5.667 0 01-4.36 1.305c-2.644-.33-3.677-1.6-3.677-1.6s-7.119 1.6-6.678 2.26c.44.662 2.423 11.458 2.423 11.458s1.322 9.364-.22 12.559c-1.542 3.195-2.313 8.483-1.652 8.923.661.441 8.042 2.424 8.923 2.975.881.55 1.212-1.322 1.763-.992.551.33 1.762.882 2.534.441.771-.44 8.262-4.407 8.042-5.178-.221-.77-3.085-10.135-4.076-12.008-.992-1.873-.221-5.839.33-6.61.551-.771 1.653-1.652 1.873-3.856.22-2.203 0-8.372 0-8.372z" fill="#EBEAF0"/><path d="M912.164 60.092s-.904.67-1.235 2.103c-.33 1.432-.771 12.89-.771 12.89s-4.076 15.753-3.195 16.083c.882.33 3.416.992 3.746.661.331-.33 4.076-13.66 3.746-15.092-.331-1.432.44-5.619.44-5.619l-2.731-11.026zM930.649 60.211l1.212-.44s.661-.441 1.432 1.212c.771 1.652 9.144 11.347 7.601 14.431-1.542 3.085-6.61 9.364-6.83 8.924-.22-.44-2.754-3.746-2.313-4.076.44-.33 5.508-4.848 4.847-5.509-.661-.66-3.415-6.28-4.958-6.5-1.542-.22-.991-8.042-.991-8.042z" fill="#EBEAF0"/><path d="M918.734 43.157c-.581.48-1.131 1.016-1.493 1.676a7.6 7.6 0 00-.473 1.153c-.446 1.282-1.553 2.58-1.084 3.854.133.364.342.747.222 1.115-.106.327-.435.518-.673.767-.51.533-.596 1.334-.627 2.072-.057 1.35.686 2.942 1.583 3.953.195.19.376.395.54.612a1.432 1.432 0 01.17 1.179l1.307-.273c.047.483.062.968.044 1.453a1.355 1.355 0 001.438-.93c.074.346.195.68.359.993.384-.48.678-1.025.868-1.608a4.588 4.588 0 00.156-2.322 9.807 9.807 0 00-.562-1.65c-.462-1.168-.84-2.367-1.216-3.565-.196-.622-.394-1.264-.335-1.913l.465-.05a2.21 2.21 0 01.146-.75c.272.057.534.156.777.292l.536-1.359c.353.367.86.533 1.346.685l1.846.582.011-.366a9.488 9.488 0 002.627 1.648.609.609 0 01-.129-.475c.455.815.273 1.83-.008 2.72-.281.89-.653 1.797-.54 2.723.084.693.439 1.356.373 2.05-.032.343-.166.668-.208 1.01-.099.813.329 1.589.742 2.297l.803-1.103c.294-.404.597-.817 1.013-1.092.428-.284.957-.41 1.33-.763.664-.63.58-1.7.364-2.59-.115-.473-.254-.952-.212-1.437.072-.821.643-1.5.964-2.26a3.917 3.917 0 00-.22-3.45c-.399-.684-1.002-1.236-1.378-1.933-.374-.694-.517-1.52-1.029-2.119a3.584 3.584 0 00-.864-.687 11.25 11.25 0 00-4.787-1.562c-1.606-.168-2.961.409-4.192 1.423z" fill="#3F3D4B"/></g><path fill-rule="evenodd" clip-rule="evenodd" d="M941.425 196.283a5.126 5.126 0 013.621-1.498h5.347a1.557 1.557 0 110 3.114h-5.347a2.008 2.008 0 00-2.008 2.003v5.341a1.557 1.557 0 11-3.114 0v-5.341c0-1.358.54-2.659 1.501-3.619zm46.624.059c0-.86.697-1.557 1.557-1.557h5.347a5.11 5.11 0 015.117 5.117v5.341c0 .86-.692 1.557-1.552 1.557-.86 0-1.557-.697-1.557-1.557v-5.341a2.002 2.002 0 00-2.008-2.003h-5.347c-.86 0-1.557-.697-1.557-1.557zm-46.568 42.949c.86 0 1.557.697 1.557 1.557v5.34a2.009 2.009 0 002.008 2.004h5.347a1.557 1.557 0 110 3.114h-5.347a5.117 5.117 0 01-5.122-5.118v-5.34c0-.86.697-1.557 1.557-1.557zm57.037 0c.86 0 1.552.697 1.552 1.557v5.34a5.112 5.112 0 01-5.117 5.118h-5.347a1.557 1.557 0 110-3.114h5.347c.533 0 1.044-.212 1.421-.588a2 2 0 00.587-1.416v-5.34c0-.86.697-1.557 1.557-1.557z" fill="#BCBAC8"/><path d="M956.58 219.318a1.059 1.059 0 01-.845-.406 1.036 1.036 0 01-.075-1.158c1.342-2.24 5.426-7.47 14.338-7.47 3.862 0 7.25 1.015 10.063 3.014 2.316 1.641 3.614 3.499 4.232 4.393a1.038 1.038 0 01.011 1.16 1.033 1.033 0 01-.29.288 1.077 1.077 0 01-1.478-.279c-1.119-1.609-4.531-6.505-12.538-6.505-7.815 0-11.349 4.506-12.499 6.438a1.052 1.052 0 01-.919.525z" fill="#DBDAE2"/><path d="M974.489 239.788a1.07 1.07 0 01-.264-.03c-6.464-1.602-8.878-8.064-8.976-8.333l-.016-.059c-.053-.187-1.35-4.618.642-7.214.912-1.183 2.301-1.791 4.134-1.791 1.704 0 2.934.53 3.779 1.627.696.895.975 1.999 1.244 3.063.566 2.216.975 3.379 3.328 3.499 1.033.052 1.712-.552 2.097-1.067 1.041-1.403 1.222-3.69.437-5.709-1.008-2.606-4.586-7.519-10.895-7.519-2.693 0-5.167.865-7.152 2.491-1.642 1.348-2.943 3.25-3.57 5.205-1.162 3.64.362 9.362.377 9.414a1.044 1.044 0 01-.111.795 1.033 1.033 0 01-.646.476 1.072 1.072 0 01-1.305-.738c-.07-.262-1.697-6.364-.355-10.571 1.462-4.558 5.974-9.153 12.764-9.153 3.138 0 6.103 1.066 8.577 3.08 1.916 1.567 3.482 3.671 4.3 5.774 1.041 2.686.762 5.7-.709 7.669-.98 1.313-2.376 2-3.923 1.925-4.028-.202-4.752-3.014-5.28-5.065-.543-2.104-.891-3.119-2.965-3.119-1.139 0-1.939.314-2.437.963-.678.887-.731 2.275-.656 3.282.049.701.168 1.396.355 2.074.166.418 2.323 5.709 7.491 6.989a1.041 1.041 0 01.766 1.261 1.07 1.07 0 01-1.031.781z" fill="#DBDAE2"/><path d="M966.19 239.31a1.093 1.093 0 01-.777-.328c-2.587-2.716-4.051-5.752-4.601-9.548v-.021c-.309-2.513.143-6.072 2.361-8.518 1.637-1.806 3.938-2.723 6.827-2.723 3.417 0 6.103 1.589 7.777 4.587 1.215 2.179 1.456 4.35 1.462 4.439a1.044 1.044 0 01-.95 1.142 1.064 1.064 0 01-1.169-.926 10.73 10.73 0 00-1.244-3.71c-1.297-2.29-3.272-3.454-5.884-3.454-2.255 0-4.02.679-5.235 2.019-1.75 1.932-2.088 4.909-1.848 6.878.482 3.357 1.772 6.028 4.051 8.415a1.007 1.007 0 01.284.746 1.01 1.01 0 01-.337.723 1.081 1.081 0 01-.717.279z" fill="#DBDAE2"/><path d="M978.11 236.319c-2.262 0-4.186-.627-5.726-1.872-3.092-2.492-3.439-6.551-3.454-6.722a1.062 1.062 0 112.12-.164c.007.06.317 3.379 2.701 5.291 1.41 1.127 3.296 1.574 5.619 1.313a1.057 1.057 0 011.177.917 1.046 1.046 0 01-.227.771 1.042 1.042 0 01-.708.378c-.499.058-1 .088-1.502.088zM979.897 208.651c-.883-.575-4.013-2.283-9.899-2.283-6.179 0-9.317 1.887-10.011 2.367a.813.813 0 00-.128.097.023.023 0 01-.015.007 1.033 1.033 0 00-.355.777 1.046 1.046 0 00.663.96c.128.051.265.076.403.074.221-.001.437-.068.618-.195.03-.022 2.731-2.006 8.827-2.006 6.095 0 8.811 1.977 8.84 1.992.185.137.411.211.641.209a1.056 1.056 0 00.748-.298 1.035 1.035 0 00-.332-1.701z" fill="#DBDAE2"/><rect x="953.968" y="52.194" width="32.065" height="3.92" rx="1.96" fill="#525061"/><g opacity=".3" filter="url(#filter5_f_465_190)"><rect x="1011.61" y="44.368" width="11.394" height="233.325" rx="5.697" fill="url(#paint4_linear_465_190)"/></g><g filter="url(#filter6_d_465_190)"><path d="M900.112 97.38h1.496a6 6 0 016 5.999v42.81a6 6 0 01-6 6h-1.496v-54.81z" fill="#FE8D53"/></g><g filter="url(#filter7_d_465_190)"><path d="M1039.98 97.38h-1.5c-3.31 0-6 2.686-6 5.999v42.81c0 3.314 2.69 6 6 6h1.5v-54.81z" fill="#FE8D53"/></g><g filter="url(#filter8_d_465_190)"><path d="M919.356 97.602a6 6 0 016-6h89.294c3.31 0 6 2.686 6 6v54.37c0 3.313-2.69 6-6 6h-89.294a6 6 0 01-6-6v-54.37z" fill="#FFA945"/></g><path opacity=".3" d="M919.445 97.602a6 6 0 016-6h89.285c3.32 0 6 2.686 6 6v54.37c0 3.313-2.68 6-6 6h-89.285a6 6 0 01-6-6v-54.37z" fill="url(#paint5_linear_465_190)"/><path d="M927.222 108.114a6.142 6.142 0 016.143-6.142h2.233a6.142 6.142 0 110 12.285h-2.233a6.143 6.143 0 01-6.143-6.143z" fill="#1A1A22"/><rect x="927.222" y="135.561" width="54.506" height="3.92" rx="1.96" fill="#525061"/><rect x="927.222" y="143.184" width="32.065" height="3.92" rx="1.96" fill="#525061"/><g opacity=".7" filter="url(#filter9_di_465_190)"><rect x="1016" y="112" width="120" height="240" rx="12" fill="#EBEAF0"/></g><rect opacity=".2" x="1026" y="122" width="120" height="240" rx="12" fill="#1A1A22"/><g opacity=".8" filter="url(#filter10_i_465_190)"><rect x="1016" y="112" width="120" height="240" rx="12" fill="#3F3D4B"/></g><rect opacity=".7" x="1016" y="112" width="120" height="240" rx="12" fill="url(#paint6_linear_465_190)"/><rect x="1030.29" y="126.286" width="33.714" height="5.143" rx="2.571" fill="#838192"/><rect x="1070.29" y="126.286" width="25.143" height="5.143" rx="2.571" fill="#DBDAE2"/><rect x="1030.29" y="137.714" width="53.714" height="5.143" rx="2.571" fill="#838192"/><rect x="1030.29" y="149.143" width="19.429" height="5.143" rx="2.571" fill="#838192"/><rect x="1041.71" y="160.571" width="28" height="5.143" rx="2.571" fill="#838192"/><rect x="1076" y="160.571" width="36.571" height="5.143" rx="2.571" fill="#DBDAE2"/><rect x="1041.71" y="172" width="10.857" height="5.143" rx="2.571" fill="#838192"/><rect x="1058.86" y="172" width="10.857" height="5.143" rx="2.571" fill="#DBDAE2"/><rect x="1030.29" y="183.429" width="19.429" height="5.143" rx="2.571" fill="#838192"/><rect x="1030.29" y="240.571" width="36.571" height="5.143" rx="2.571" fill="#838192"/><rect x="1030.29" y="252" width="19.429" height="5.143" rx="2.571" fill="#838192"/><rect x="1041.71" y="263.429" width="22.286" height="5.143" rx="2.571" fill="#838192"/><rect x="1070.29" y="263.429" width="13.714" height="5.143" rx="2.571" fill="#DBDAE2"/><rect x="1041.71" y="274.857" width="10.857" height="5.143" rx="2.571" fill="#838192"/><rect x="1058.86" y="274.857" width="10.857" height="5.143" rx="2.571" fill="#DBDAE2"/><rect x="1041.71" y="194.857" width="28" height="5.143" rx="2.571" fill="#838192"/><rect x="1076" y="194.857" width="10.857" height="5.143" rx="2.571" fill="#DBDAE2"/><rect x="1041.71" y="206.286" width="16.571" height="5.143" rx="2.571" fill="#838192"/><rect x="1064.57" y="206.286" width="10.857" height="5.143" rx="2.571" fill="#DBDAE2"/><rect x="1030.29" y="217.714" width="8" height="5.143" rx="2.571" fill="#838192"/><g opacity=".3" filter="url(#filter11_f_465_190)"><rect x="1118.46" y="124.384" width="11.626" height="215.231" rx="5.813" fill="url(#paint7_linear_465_190)"/></g></g><defs><filter id="filter0_di_465_190" x="720.001" y="-12" width="359.999" height="460.799" filterUnits="userSpaceOnUse" color-interpolation-filters="sRGB"><feFlood flood-opacity="0" result="BackgroundImageFix"/><feColorMatrix in="SourceAlpha" values="0 0 0 0 0 0 0 0 0 0 0 0 0 0 0 0 0 0 127 0" result="hardAlpha"/><feOffset dx="36" dy="36"/><feGaussianBlur stdDeviation="60"/><feComposite in2="hardAlpha" operator="out"/><feColorMatrix values="0 0 0 0 0 0 0 0 0 0 0 0 0 0 0 0 0 0 0.2 0"/><feBlend in2="BackgroundImageFix" result="effect1_dropShadow_465_190"/><feBlend in="SourceGraphic" in2="effect1_dropShadow_465_190" result="shape"/><feColorMatrix in="SourceAlpha" values="0 0 0 0 0 0 0 0 0 0 0 0 0 0 0 0 0 0 127 0" result="hardAlpha"/><feOffset/><feGaussianBlur stdDeviation="60"/><feComposite in2="hardAlpha" operator="arithmetic" k2="-1" k3="1"/><feColorMatrix values="0 0 0 0 0 0 0 0 0 0 0 0 0 0 0 0 0 0 0.8 0"/><feBlend in2="shape" result="effect2_innerShadow_465_190"/></filter><filter id="filter1_i_465_190" x="804" y="72" width="119.999" height="220.799" filterUnits="userSpaceOnUse" color-interpolation-filters="sRGB"><feFlood flood-opacity="0" result="BackgroundImageFix"/><feBlend in="SourceGraphic" in2="BackgroundImageFix" result="shape"/><feColorMatrix in="SourceAlpha" values="0 0 0 0 0 0 0 0 0 0 0 0 0 0 0 0 0 0 127 0" result="hardAlpha"/><feOffset/><feGaussianBlur stdDeviation="60"/><feComposite in2="hardAlpha" operator="arithmetic" k2="-1" k3="1"/><feColorMatrix values="0 0 0 0 0 0 0 0 0 0 0 0 0 0 0 0 0 0 0.8 0"/><feBlend in2="shape" result="effect1_innerShadow_465_190"/></filter><filter id="filter2_f_465_190" x="839.668" y="22.403" width="129.766" height="319.993" filterUnits="userSpaceOnUse" color-interpolation-filters="sRGB"><feFlood flood-opacity="0" result="BackgroundImageFix"/><feBlend in="SourceGraphic" in2="BackgroundImageFix" result="shape"/><feGaussianBlur stdDeviation="30" result="effect1_foregroundBlur_465_190"/></filter><filter id="filter3_di_465_190" x="816.001" y="-51.768" width="379.999" height="497.598" filterUnits="userSpaceOnUse" color-interpolation-filters="sRGB"><feFlood flood-opacity="0" result="BackgroundImageFix"/><feColorMatrix in="SourceAlpha" values="0 0 0 0 0 0 0 0 0 0 0 0 0 0 0 0 0 0 127 0" result="hardAlpha"/><feOffset dx="36" dy="36"/><feGaussianBlur stdDeviation="60"/><feComposite in2="hardAlpha" operator="out"/><feColorMatrix values="0 0 0 0 0 0 0 0 0 0 0 0 0 0 0 0 0 0 0.2 0"/><feBlend in2="BackgroundImageFix" result="effect1_dropShadow_465_190"/><feBlend in="SourceGraphic" in2="effect1_dropShadow_465_190" result="shape"/><feColorMatrix in="SourceAlpha" values="0 0 0 0 0 0 0 0 0 0 0 0 0 0 0 0 0 0 127 0" result="hardAlpha"/><feOffset/><feGaussianBlur stdDeviation="60"/><feComposite in2="hardAlpha" operator="arithmetic" k2="-1" k3="1"/><feColorMatrix values="0 0 0 0 0 0 0 0 0 0 0 0 0 0 0 0 0 0 0.8 0"/><feBlend in2="shape" result="effect2_innerShadow_465_190"/></filter><filter id="filter4_i_465_190" x="900" y="32.232" width="139.999" height="257.598" filterUnits="userSpaceOnUse" color-interpolation-filters="sRGB"><feFlood flood-opacity="0" result="BackgroundImageFix"/><feBlend in="SourceGraphic" in2="BackgroundImageFix" result="shape"/><feColorMatrix in="SourceAlpha" values="0 0 0 0 0 0 0 0 0 0 0 0 0 0 0 0 0 0 127 0" result="hardAlpha"/><feOffset/><feGaussianBlur stdDeviation="60"/><feComposite in2="hardAlpha" operator="arithmetic" k2="-1" k3="1"/><feColorMatrix values="0 0 0 0 0 0 0 0 0 0 0 0 0 0 0 0 0 0 0.8 0"/><feBlend in2="shape" result="effect1_innerShadow_465_190"/></filter><filter id="filter5_f_465_190" x="951.613" y="-15.632" width="131.394" height="353.325" filterUnits="userSpaceOnUse" color-interpolation-filters="sRGB"><feFlood flood-opacity="0" result="BackgroundImageFix"/><feBlend in="SourceGraphic" in2="BackgroundImageFix" result="shape"/><feGaussianBlur stdDeviation="30" result="effect1_foregroundBlur_465_190"/></filter><filter id="filter6_d_465_190" x="888.112" y="89.379" width="31.497" height="78.81" filterUnits="userSpaceOnUse" color-interpolation-filters="sRGB"><feFlood flood-opacity="0" result="BackgroundImageFix"/><feColorMatrix in="SourceAlpha" values="0 0 0 0 0 0 0 0 0 0 0 0 0 0 0 0 0 0 127 0" result="hardAlpha"/><feOffset dy="4"/><feGaussianBlur stdDeviation="6"/><feComposite in2="hardAlpha" operator="out"/><feColorMatrix values="0 0 0 0 0 0 0 0 0 0 0 0 0 0 0 0 0 0 0.3 0"/><feBlend in2="BackgroundImageFix" result="effect1_dropShadow_465_190"/><feBlend in="SourceGraphic" in2="effect1_dropShadow_465_190" result="shape"/></filter><filter id="filter7_d_465_190" x="1020.48" y="89.379" width="31.497" height="78.81" filterUnits="userSpaceOnUse" color-interpolation-filters="sRGB"><feFlood flood-opacity="0" result="BackgroundImageFix"/><feColorMatrix in="SourceAlpha" values="0 0 0 0 0 0 0 0 0 0 0 0 0 0 0 0 0 0 127 0" result="hardAlpha"/><feOffset dy="4"/><feGaussianBlur stdDeviation="6"/><feComposite in2="hardAlpha" operator="out"/><feColorMatrix values="0 0 0 0 0 0 0 0 0 0 0 0 0 0 0 0 0 0 0.3 0"/><feBlend in2="BackgroundImageFix" result="effect1_dropShadow_465_190"/><feBlend in="SourceGraphic" in2="effect1_dropShadow_465_190" result="shape"/></filter><filter id="filter8_d_465_190" x="907.356" y="83.602" width="125.289" height="90.37" filterUnits="userSpaceOnUse" color-interpolation-filters="sRGB"><feFlood flood-opacity="0" result="BackgroundImageFix"/><feColorMatrix in="SourceAlpha" values="0 0 0 0 0 0 0 0 0 0 0 0 0 0 0 0 0 0 127 0" result="hardAlpha"/><feOffset dy="4"/><feGaussianBlur stdDeviation="6"/><feComposite in2="hardAlpha" operator="out"/><feColorMatrix values="0 0 0 0 0 0 0 0 0 0 0 0 0 0 0 0 0 0 0.3 0"/><feBlend in2="BackgroundImageFix" result="effect1_dropShadow_465_190"/><feBlend in="SourceGraphic" in2="effect1_dropShadow_465_190" result="shape"/></filter><filter id="filter9_di_465_190" x="932" y="28" width="360" height="480" filterUnits="userSpaceOnUse" color-interpolation-filters="sRGB"><feFlood flood-opacity="0" result="BackgroundImageFix"/><feColorMatrix in="SourceAlpha" values="0 0 0 0 0 0 0 0 0 0 0 0 0 0 0 0 0 0 127 0" result="hardAlpha"/><feOffset dx="36" dy="36"/><feGaussianBlur stdDeviation="60"/><feComposite in2="hardAlpha" operator="out"/><feColorMatrix values="0 0 0 0 0 0 0 0 0 0 0 0 0 0 0 0 0 0 0.2 0"/><feBlend in2="BackgroundImageFix" result="effect1_dropShadow_465_190"/><feBlend in="SourceGraphic" in2="effect1_dropShadow_465_190" result="shape"/><feColorMatrix in="SourceAlpha" values="0 0 0 0 0 0 0 0 0 0 0 0 0 0 0 0 0 0 127 0" result="hardAlpha"/><feOffset/><feGaussianBlur stdDeviation="60"/><feComposite in2="hardAlpha" operator="arithmetic" k2="-1" k3="1"/><feColorMatrix values="0 0 0 0 0 0 0 0 0 0 0 0 0 0 0 0 0 0 0.8 0"/><feBlend in2="shape" result="effect2_innerShadow_465_190"/></filter><filter id="filter10_i_465_190" x="1016" y="112" width="120" height="240" filterUnits="userSpaceOnUse" color-interpolation-filters="sRGB"><feFlood flood-opacity="0" result="BackgroundImageFix"/><feBlend in="SourceGraphic" in2="BackgroundImageFix" result="shape"/><feColorMatrix in="SourceAlpha" values="0 0 0 0 0 0 0 0 0 0 0 0 0 0 0 0 0 0 127 0" result="hardAlpha"/><feOffset/><feGaussianBlur stdDeviation="60"/><feComposite in2="hardAlpha" operator="arithmetic" k2="-1" k3="1"/><feColorMatrix values="0 0 0 0 0 0 0 0 0 0 0 0 0 0 0 0 0 0 0.8 0"/><feBlend in2="shape" result="effect1_innerShadow_465_190"/></filter><filter id="filter11_f_465_190" x="1058.46" y="64.385" width="131.626" height="335.231" filterUnits="userSpaceOnUse" color-interpolation-filters="sRGB"><feFlood flood-opacity="0" result="BackgroundImageFix"/><feBlend in="SourceGraphic" in2="BackgroundImageFix" result="shape"/><feGaussianBlur stdDeviation="30" result="effect1_foregroundBlur_465_190"/></filter><linearGradient id="paint0_linear_465_190" x1="864" y1="72" x2="864" y2="292.799" gradientUnits="userSpaceOnUse"><stop stop-color="#1A1A22"/><stop offset="1" stop-color="#1A1A22" stop-opacity="0"/></linearGradient><linearGradient id="paint1_linear_465_190" x1="804" y1="72.009" x2="869.924" y2="102.229" gradientUnits="userSpaceOnUse"><stop stop-color="#EBEAF0"/><stop offset="1" stop-color="#EBEAF0" stop-opacity="0"/></linearGradient><linearGradient id="paint2_linear_465_190" x1="904.551" y1="82.403" x2="904.551" y2="282.396" gradientUnits="userSpaceOnUse"><stop stop-color="#fff"/><stop offset="1" stop-color="#fff" stop-opacity="0"/></linearGradient><linearGradient id="paint3_linear_465_190" x1="970" y1="32.232" x2="970" y2="289.83" gradientUnits="userSpaceOnUse"><stop stop-color="#1A1A22"/><stop offset="1" stop-color="#1A1A22" stop-opacity="0"/></linearGradient><linearGradient id="paint4_linear_465_190" x1="1017.31" y1="44.368" x2="1017.31" y2="277.693" gradientUnits="userSpaceOnUse"><stop stop-color="#fff"/><stop offset="1" stop-color="#fff" stop-opacity="0"/></linearGradient><linearGradient id="paint5_linear_465_190" x1="919.445" y1="91.607" x2="972.419" y2="123.036" gradientUnits="userSpaceOnUse"><stop stop-color="#EBEAF0"/><stop offset="1" stop-color="#EBEAF0" stop-opacity="0"/></linearGradient><linearGradient id="paint6_linear_465_190" x1="1076" y1="112" x2="1076" y2="352" gradientUnits="userSpaceOnUse"><stop stop-color="#1A1A22"/><stop offset="1" stop-color="#1A1A22" stop-opacity="0"/></linearGradient><linearGradient id="paint7_linear_465_190" x1="1124.27" y1="124.384" x2="1124.27" y2="339.616" gradientUnits="userSpaceOnUse"><stop stop-color="#fff"/><stop offset="1" stop-color="#fff" stop-opacity="0"/></linearGradient></defs></svg>